<?xml version="1.0" encoding="UTF-8" standalone="no"?>
<!-- Created with Inkscape (http://www.inkscape.org/) -->

<svg
   version="1.1"
   id="svg1"
   width="796.4126"
   height="893.51532"
   viewBox="0 0 796.4126 893.51532"
   sodipodi:docname="logo.svg"
   inkscape:version="1.4.2 (ebf0e940d0, 2025-05-08)"
   xmlns:inkscape="http://www.inkscape.org/namespaces/inkscape"
   xmlns:sodipodi="http://sodipodi.sourceforge.net/DTD/sodipodi-0.dtd"
   xmlns="http://www.w3.org/2000/svg"
   xmlns:svg="http://www.w3.org/2000/svg">
  <sodipodi:namedview
     id="namedview1"
     pagecolor="#ffffff"
     bordercolor="#000000"
     borderopacity="0.25"
     inkscape:showpageshadow="2"
     inkscape:pageopacity="0.0"
     inkscape:pagecheckerboard="0"
     inkscape:deskcolor="#d1d1d1"
     inkscape:zoom="1.5859375"
     inkscape:cx="397.87192"
     inkscape:cy="439.48768"
     inkscape:window-width="3072"
     inkscape:window-height="1852"
     inkscape:window-x="0"
     inkscape:window-y="0"
     inkscape:window-maximized="1"
     inkscape:current-layer="svg1" />
  <defs
     id="defs1" />
  <g
     id="g1"
     transform="translate(-114.40908,-72.222939)">
    <path
       style="fill:#6da7de;fill-opacity:1"
       d="m 212.5,964.65766 c -7.72594,-2.01742 -12.74494,-5.05109 -18.16111,-10.97723 -6.83993,-7.48398 -9.45133,-14.52734 -10.08159,-27.19168 -0.29379,-5.9033 -0.012,-12.35352 0.6868,-15.71947 2.69211,-12.96784 10.61589,-23.32811 21.88075,-28.60887 5.07368,-2.37845 6.84096,-2.65927 16.67515,-2.64964 12.34222,0.0121 17.21699,1.55813 24.98633,7.92452 4.07928,3.34266 9.63777,12.42293 10.90529,17.81471 l 0.64648,2.75 h -8.83384 -8.83384 l -1.62164,-3.40062 c -4.18821,-8.78278 -16.92967,-13.01039 -26.24878,-8.70934 -8.09343,3.73536 -11.50136,10.17602 -12.2573,23.16513 -0.93573,16.07844 4.4374,26.34242 15.46891,29.54937 4.50446,1.30948 6.28346,1.38271 10.12642,0.41681 5.8029,-1.45851 10.79095,-5.17546 12.91075,-9.62073 L 242.37042,936 h 8.83384 8.83384 l -0.60473,2.75 c -0.33261,1.5125 -1.93859,5.55073 -3.56884,8.97385 -3.45481,7.2542 -9.17519,12.44643 -16.97954,15.41185 -6.63772,2.52213 -19.6748,3.27415 -26.38499,1.52196 z m 157.5,0.71443 c -6.61227,-1.27335 -12.63984,-3.95461 -16.29304,-7.24767 -4.39323,-3.96014 -8.68177,-12.03428 -8.69719,-16.37442 L 345,939 h 7.81953 c 7.81933,0 7.81957,8e-5 9.25,3.17861 1.9528,4.33925 5.53334,6.72566 11.4511,7.63209 C 385.10792,951.58552 393,947.98125 393,940.91458 c 0,-5.23794 -3.73974,-8.09972 -14.17129,-10.84438 -18.02494,-4.74255 -21.7179,-6.5567 -27.19086,-13.35739 -2.49927,-3.10559 -3.11918,-4.9082 -3.44441,-10.01588 -0.56462,-8.86721 1.11982,-14.06282 6.20927,-19.15227 5.68819,-5.68819 12.42511,-7.93989 23.59729,-7.88697 10.57025,0.0501 17.15298,2.61487 23.00472,8.96325 4.16611,4.5197 5.22601,6.51364 6.44733,12.12906 l 0.70686,3.25 -7.82945,-0.0385 c -7.71468,-0.038 -7.85886,-0.0856 -9.83467,-3.25 -2.92481,-4.68428 -7.86035,-6.90608 -14.28626,-6.43115 -6.88695,0.50901 -10.60267,3.18707 -11.01097,7.936 -0.4292,4.99211 3.43821,7.94916 13.97373,10.68442 25.31084,6.57126 33.06906,13.63975 31.52424,28.72165 -1.04234,10.17622 -6.94689,17.44376 -17.36357,21.3717 -5.71984,2.15685 -17.98759,3.40718 -23.33196,2.37799 z m 243.03291,-1.97296 c -13.36721,-3.59237 -22.80529,-13.93716 -26.05274,-28.55561 -0.77864,-3.50508 -1.07171,-9.49539 -0.77054,-15.7498 0.4381,-9.098 0.84838,-10.82649 4.16054,-17.5282 5.57232,-11.27482 14.31485,-18.01785 26.84465,-20.70501 7.76445,-1.66518 23.2651,-0.63471 29.05659,1.93164 11.49489,5.09367 18.97523,13.36868 22.24152,24.60433 2.41794,8.31743 1.69231,25.88942 -1.39597,33.80515 -4.22158,10.82052 -13.96603,18.96121 -26.65192,22.26546 -7.31818,1.90614 -20.20527,1.87422 -27.43213,-0.068 z m 24.09136,-14.942 c 2.40665,-0.84858 6.0595,-3.18626 8.11744,-5.19485 5.19627,-5.07167 7.24834,-10.98303 7.20741,-20.76228 -0.0638,-15.23228 -7.37002,-25.02456 -20.2025,-27.07655 -5.71781,-0.91432 -14.45084,1.21746 -19.26057,4.70161 -6.37307,4.61663 -9.44655,12.0732 -9.4287,22.87494 0.016,9.70871 2.02912,15.43262 7.27118,20.67469 5.84847,5.84846 17.34331,7.93904 26.29574,4.78244 z M 782,963.1176 c -7.84407,-2.53128 -11.10322,-4.42442 -16.28228,-9.45789 -7.89882,-7.67677 -11.7032,-17.66198 -11.68141,-30.65971 0.0225,-13.41559 3.70282,-23.36289 11.61205,-31.38545 8.01312,-8.12792 17.24231,-11.58264 30.9963,-11.60268 19.55111,-0.0285 33.80402,9.80612 39.41498,27.1966 1.81301,5.61922 2.10218,8.46067 1.78091,17.5 -0.3394,9.54943 -0.74228,11.55388 -3.50025,17.41491 -4.12035,8.75622 -9.20747,14.19788 -16.69791,17.86165 -10.70436,5.23579 -25.1818,6.50819 -35.64239,3.13257 z m 25.52078,-15.3635 c 10.7066,-5.55888 15.6906,-19.54413 12.0494,-33.81092 -2.78376,-10.90718 -9.78828,-17.03603 -21.07018,-18.4361 -10.31971,-1.28066 -19.52724,3.7614 -24.15975,13.22992 -2.36749,4.83897 -2.81699,7.0261 -2.82762,13.75831 -0.0155,9.8335 2.05133,15.69654 7.36114,20.88143 2.12146,2.07155 5.60522,4.41681 7.74171,5.2117 4.87353,1.81322 16.71636,1.34057 20.9053,-0.83434 z m -546.19733,15.53157 c 0.2681,-0.4338 6.56258,-17.21304 13.98772,-37.2872 7.42515,-20.07416 14.26656,-38.41097 15.20313,-40.74847 l 1.70286,-4.25 9.14142,0.009 9.14142,0.009 13.84846,36.74062 c 7.61665,20.20734 14.69663,38.87812 15.73329,41.49062 l 1.88484,4.75 h -9.78006 -9.78005 l -2.51457,-7.75 -2.51457,-7.75 h -15.8134 -15.8134 l -2.74821,7.5 -2.74821,7.5 -9.70907,0.2872 c -5.33999,0.15796 -9.48971,-0.0677 -9.2216,-0.50153 z M 311,931.25118 c 0,-2.40528 -9.3553,-28.28064 -9.97487,-27.58899 C 300.33414,904.43358 292,930.05144 292,931.40405 c 0,0.32777 4.275,0.59595 9.5,0.59595 5.225,0 9.5,-0.33697 9.5,-0.74882 z m 104,32.16441 c 0,-0.58703 6.39053,-17.88886 24.80412,-67.15513 l 5.69588,-15.23955 9.10771,-0.0104 9.10771,-0.0105 6.1531,16.25 c 3.38421,8.9375 10.38639,27.5 15.56041,41.25 l 9.4073,25 -9.08454,0.28973 c -10.33836,0.32971 -9.67239,0.79636 -12.90089,-9.03973 L 470.63524,948 h -15.68731 -15.68732 l -2.91427,7.75 -2.91426,7.75 -9.21604,0.28753 C 419.14722,963.94567 415,963.7783 415,963.41559 Z M 460.29742,918.25 c -2.5042,-7.5625 -4.86592,-14.09786 -5.24827,-14.52302 -0.38235,-0.42516 -2.63438,5.19984 -5.00451,12.5 -2.37013,7.30016 -4.52291,13.83552 -4.78397,14.52302 -0.36015,0.94848 1.94532,1.25 9.55759,1.25 H 464.8505 Z M 503,922.5 V 881 l 8.25,0.0398 8.25,0.0398 18,26.92038 c 9.9,14.80621 18.22872,26.93829 18.50827,26.96019 0.27955,0.0219 0.50455,-12.11011 0.5,-26.96001 l -0.008,-26.99981 8.25,-1.9e-4 L 573,881 v 41.5 41.5 h -7.91499 -7.91499 L 546.7179,949.25 c -5.74867,-8.1125 -13.95636,-20.0375 -18.23932,-26.5 -4.28296,-6.4625 -8.05526,-11.75031 -8.38289,-11.75068 -0.32763,-3.8e-4 -0.46884,11.92462 -0.31381,26.5 L 520.06376,964 H 511.53188 503 Z m 192.15337,18.75 c -4.47123,-12.5125 -11.22506,-31.1875 -15.00849,-41.5 L 673.2659,881 h 9.27248 9.27247 l 2.93236,8.25 c 1.6128,4.5375 6.25502,18.0375 10.31605,30 4.06103,11.9625 7.71,21.75 8.10882,21.75 0.39882,0 5.13665,-13.48747 10.52852,-29.97216 l 9.8034,-29.97216 9.36663,-0.0278 c 8.45636,-0.0251 9.3168,0.14223 8.8539,1.72216 -0.282,0.9625 -6.936,19.6375 -14.78666,41.5 L 722.65994,964 h -9.68852 -9.68853 z M 499,863.30734 c -16.59566,-0.65336 -44.30221,-3.4387 -57.85418,-5.81608 C 325.30311,837.16932 226.04691,768.74152 166.67402,668.26881 140.14668,623.37839 123.14057,572.62183 116.32608,518 c -2.57076,-20.60597 -2.55161,-80.71757 0.0315,-99 10.77476,-76.25944 38.53776,-142.0395 84.01663,-199.06417 25.67366,-32.19147 53.28376,-57.54757 89.12867,-81.85247 30.9897,-21.01279 59.82311,-35.22716 94.23034,-46.453937 C 422.56545,78.958821 456.79419,73.276446 500,72.327768 c 94.53494,-2.07572 186.06193,26.735064 257.5,81.055622 27.06567,20.58037 57.7695,52.04595 78.17707,80.11661 27.17351,37.37722 51.21704,87.13408 61.29377,126.84434 10.96973,43.22937 14.92537,78.15958 13.60693,120.15566 -0.73528,23.42088 -0.85315,24.89193 -3.67796,45.90059 -8.09033,60.16953 -28.22205,113.32152 -62.08486,163.91716 C 825.90381,718.57356 797.5736,750.21153 773,770.5176 737.67011,799.71199 707.78361,816.99117 657.96752,837.0248 623.36044,850.9421 579.01269,860.54248 538,862.99531 c -15.69847,0.93887 -21.83141,0.98794 -39,0.31203 z m 197.5,-84.33481 c 12.38147,-1.39094 20.5,-3.04919 20.5,-4.18723 0,-0.76966 -19.72185,-25.39307 -24.55141,-30.65329 -1.04893,-1.14246 -2.75275,-0.52423 -10.33494,3.75 -4.99343,2.8149 -9.81627,5.11799 -10.71744,5.11799 -0.90116,0 -5.60939,-2.29175 -10.46273,-5.09277 -4.85333,-2.80103 -9.26285,-4.8217 -9.79893,-4.49039 -1.6664,1.0299 -21.27808,26.77296 -20.77757,27.27347 1.56686,1.56687 27.32675,6.98152 41.14302,8.64814 6.26594,0.75585 16.32516,0.60861 25,-0.36592 z M 736.16398,768.30755 740,766.6151 v -22.83893 c 0,-20.88671 -0.14959,-22.88337 -1.75,-23.35867 -0.9625,-0.28585 -3.01974,-1.1693 -4.57164,-1.96322 -2.75759,-1.41072 -3.14916,-1.23374 -17.25122,7.79743 -7.93628,5.08251 -14.29814,9.63528 -14.13748,10.11727 0.77632,2.32895 27.39293,33.57153 28.62432,33.59922 0.77769,0.0175 3.14019,-0.7298 5.25,-1.66065 z m -116.33164,-3.41069 c 0.72239,-1.15672 6.06538,-8.15092 11.87333,-15.54266 10.00854,-12.73782 10.4616,-13.51603 8.67711,-14.90478 -1.03553,-0.80588 -6.83278,-4.63309 -12.88278,-8.5049 -6.05,-3.87181 -11.675,-7.49952 -12.5,-8.06158 -1.08548,-0.73952 -2.81833,-0.43458 -6.27053,1.10344 l -4.77053,2.12537 0.27053,20.18323 0.27053,20.18324 6.5,2.68463 c 8.00302,3.30542 7.26478,3.24407 8.83234,0.73401 z M 758.6062,754.32907 c 20.3039,-15.23034 43.39204,-39.79845 62.51314,-66.52031 32.1302,-44.90217 54.44776,-97.33881 63.33451,-148.80876 4.88803,-28.31026 5.82349,-39.03642 5.84333,-67 0.0395,-55.66356 -7.43197,-95.24444 -27.43671,-145.34922 C 839.36457,267.80185 801.40808,216.65712 751.21568,176.21422 717.23749,148.83603 675.85738,126.54171 633.05502,112.5529 562.96703,89.646505 487.54182,86.274116 419.5,103.00449 380.50035,112.59387 341.1976,129.28113 309.87868,149.54779 231.51082,200.26009 176.32067,272.93871 150.06707,360 c -17.45836,57.89479 -20.81826,126.63519 -9.00773,184.28969 13.07291,63.81695 41.17302,120.57054 84.52291,170.71031 11.0404,12.76965 21.51923,22.73638 24.75969,23.54969 3.54445,0.8896 7.64808,-0.22188 10.43934,-2.82752 2.987,-2.78836 4.2575,-7.51287 9.74077,-36.22217 10.41311,-54.52104 16.78147,-97.06041 23.20429,-155 2.46725,-22.25684 2.40423,-70.81446 -0.1194,-92 -1.37237,-11.52084 -11.09155,-66.76829 -14.08158,-80.04498 -0.39287,-1.74448 -1.75114,-2.22715 -9.24296,-3.28456 -16.17762,-2.28335 -26.3734,-7.1638 -24.60319,-11.77688 C 246.31565,355.73503 253.08893,352 255.46016,352 256.47573,352 257,351.05761 257,349.23209 c 0,-2.7254 -0.16618,-2.7998 -10.82039,-4.84446 -5.95121,-1.14211 -13.38176,-3.24919 -16.51232,-4.68241 -11.21584,-5.13478 -8.45182,-9.26342 9.1969,-13.73746 l 4.36418,-1.10634 -2.11418,-1.96967 C 239.95138,321.80844 239,320.24313 239,319.4133 c 0,-4.65158 12.01885,-10.17304 37,-16.99779 9.075,-2.47925 17.2875,-4.74231 18.25,-5.02901 2.94607,-0.87755 1.95836,-4.4275 -2.2956,-8.25063 -9.59814,-8.62607 -3.91475,-18.21976 12.22758,-20.64045 4.09866,-0.61463 4.67302,-1.02042 5.20432,-3.6769 0.42582,-2.12914 1.46046,-3.31186 3.60545,-4.12151 L 316,259.56152 V 247.063 c 0,-16.99456 1.98887,-50.15975 3.13714,-52.313 1.15188,-2.16001 6.13875,-2.32743 7.85158,-0.26359 1.44498,1.7411 2.56646,15.84832 3.54247,44.56122 l 0.69846,20.54762 2.80338,1.60892 c 1.54185,0.88491 2.95268,2.60471 3.13517,3.82178 0.27738,1.84994 1.56187,2.52005 7.8318,4.08582 5.99306,1.49664 8.15301,2.57478 10.75,5.36591 4.95482,5.32521 3.97044,11.67788 -2.42171,15.62844 -2.4362,1.50565 -3.32829,2.77789 -3.32829,4.74657 0,2.5547 0.46385,2.80847 9.25,5.06058 17.28905,4.43162 32.74963,9.11179 38.49778,11.65389 9.51465,4.20783 12.88034,8.95595 8.14486,11.4903 -2.90726,1.55592 -1.57606,2.40359 7.00005,4.45746 C 419.77412,329.16294 424,331.63024 424,334 c 0,3.79622 -9.69846,7.93425 -24.75,10.56003 -9.5859,1.67228 -10.25,1.94043 -10.25,4.1388 0,1.65628 0.81236,2.64486 2.75,3.34656 5.93451,2.14912 7.25,3.24787 7.25,6.0555 0,1.89655 -0.89413,3.3996 -2.85143,4.79332 -3.28848,2.34161 -15.03102,5.68597 -23.39857,6.66409 -3.1625,0.36968 -5.75,0.7646 -5.75,0.8776 0,0.11299 -1.80946,9.17364 -4.02103,20.13477 -11.63451,57.66377 -15.77528,90.91537 -14.62329,117.42933 0.3465,7.975 1.97798,25.75 3.6255,39.5 1.64752,13.75 3.00074,26.00335 3.00715,27.22968 0.008,1.58966 -1.10482,2.79927 -3.87796,4.21401 -2.54688,1.29933 -4.26045,3.04808 -4.96381,5.06574 -0.68836,1.97462 -1.31513,24.70586 -1.745,63.28599 -0.41304,37.06901 -1.05042,60.68493 -1.65864,61.45458 -0.54329,0.6875 -1.77761,1.25 -2.74292,1.25 -0.96531,0 -2.2033,-0.5625 -2.75108,-1.25 -0.55871,-0.7012 -1.42112,-14.42112 -1.96433,-31.25 -0.80182,-24.84083 -1.25791,-30.55891 -2.65215,-33.25 -1.89265,-3.65312 -5.89716,-4.49294 -7.15243,-1.5 -0.40369,0.9625 -0.65737,19.75 -0.56374,41.75 0.1909,44.85884 0.009,43.73917 7.50643,46.24947 7.53005,2.52129 16.5064,-1.07335 19.8862,-7.96356 1.65067,-3.36513 1.89265,-9.04432 2.76642,-64.92621 0.85174,-54.47338 1.13854,-61.43853 2.59609,-63.04911 1.91379,-2.11471 4.29851,-2.31917 6.53855,-0.56059 2.26965,1.78182 2.6451,9.42406 3.37754,68.75 0.58046,47.01624 0.79663,51.87296 2.48287,55.78377 4.21647,9.77905 18.15914,9.26728 23.11159,-0.8483 1.49888,-3.06154 1.74422,-10.02061 2.25403,-63.93547 0.8139,-86.07486 1.59725,-135.22456 2.18746,-137.24768 0.79379,-2.72097 5.19946,-3.37386 7.46679,-1.10652 1.83809,1.83808 1.92715,4.92377 2.421,83.88124 0.64497,103.11945 0.9354,114.5022 3.0246,118.54227 2.88288,5.57487 11.33034,7.52915 17.16561,3.97117 6.82233,-4.15981 6.40334,1.30206 7.8048,-101.74232 0.28576,-21.01101 0.78032,-38.88138 1.09904,-39.71193 1.219,-3.17667 7.58707,-3.13328 8.81247,0.0601 0.33139,0.86358 0.87953,31.33395 1.21809,67.71193 0.59825,64.28121 0.67347,66.24728 2.67395,69.8917 5.50182,10.02309 20.82701,9.80716 24.38376,-0.34357 0.83685,-2.38834 1.24578,-15.50999 1.36831,-43.90634 0.0961,-22.275 0.45902,-41.80188 0.80644,-43.39306 0.78622,-3.60078 3.04225,-5.09719 6.41026,-4.25187 4.53702,1.13872 4.59145,1.7544 4.66381,52.74705 0.0575,40.53032 0.0616,40.60808 2.33142,43.9762 5.06998,7.52335 15.33872,10.48225 20.86542,6.01229 2.33863,-1.89147 2.36547,-2.14041 2.86078,-26.53809 0.41463,-20.42353 0.75611,-24.79033 2,-25.5753 2.12244,-1.33939 5.57353,-1.20039 6.77217,0.27278 0.60389,0.74221 1.16755,11.22995 1.38753,25.81701 0.40792,27.04992 0.61645,28.00184 6.98205,31.873 C 532.69374,736.49197 589.3878,756 591.3461,756 591.70574,756 592,748.43615 592,739.19145 V 722.3829 l -5.98917,-3.87589 c -6.6258,-4.28788 -10.25825,-8.99841 -12.03918,-15.61231 -2.95918,-10.98955 3.53614,-23.84198 14.27835,-28.25285 l 3.75,-1.5398 v -17.45556 -17.45557 l -5.37704,-3.03462 c -15.75462,-8.89135 -18.16524,-26.86852 -5.27972,-39.37349 8.89622,-8.63349 23.04093,-8.53048 33.03057,0.24054 4.44156,3.89974 6.80126,8.07075 7.565,13.3719 0.55686,3.8652 0.7169,3.98864 20.74481,16 11.10099,6.65761 22.16908,13.18244 24.59577,14.49961 l 4.41216,2.39487 24.2338,-13.64487 C 709.25394,621.14019 720.5252,615 720.97259,615 722.06913,615 723,612.39176 723,609.31934 c 0,-5.86375 5.99232,-13.68933 13.40618,-17.50759 8.10804,-4.17578 20.37511,-1.87661 27.38424,5.13252 5.3484,5.3484 6.66764,8.71186 6.68973,17.05573 0.0168,6.35969 -0.38865,8.19486 -2.66692,12.07018 -2.60855,4.43713 -7.4335,8.50839 -13.06323,11.02268 l -2.75,1.22817 v 17.39051 17.39051 l 3.75,1.5473 c 8.50407,3.50889 13.46627,9.59728 14.84396,18.21285 1.66774,10.42952 -2.91715,19.7458 -12.68471,25.77468 L 752,722.28427 v 17.85787 c 0,9.82182 0.38529,17.85786 0.8562,17.85786 0.47091,0 3.05841,-1.65192 5.75,-3.67093 z M 530.5,568.5208 c -32.45905,-7.14206 -59.42471,-30.26298 -78.16558,-67.0208 -14.01313,-27.48497 -22.3391,-59.18865 -25.53893,-97.24733 -1.38124,-16.42844 0.0397,-45.92697 2.99876,-62.25267 0.94703,-5.225 1.57587,-10.73739 1.39741,-12.24975 -0.38265,-3.24295 -4.65227,-6.72414 -11.26558,-9.18529 -3.62925,-1.35063 -4.82813,-2.40517 -5.80471,-5.10586 -0.67693,-1.87203 -2.89367,-4.79047 -4.92608,-6.48543 -5.93901,-4.95293 -20.89794,-11.86582 -32.20337,-14.88199 l -10.47305,-2.79409 -0.0419,-7.3988 c -0.0473,-8.34176 -1.57531,-12.18253 -7.17244,-18.02834 -5.44489,-5.68681 -4.73,-6.94213 9.96333,-17.49544 24.05634,-17.27815 47.35975,-36.48054 71.82492,-59.18489 15.53243,-14.41451 24.91077,-20.8722 36.79016,-25.33276 8.01928,-3.01115 9.48432,-3.2365 21.11711,-3.24833 19.65783,-0.02 39.00227,4.35312 49.27024,11.13827 3.17363,2.09715 14.89568,12.2226 26.04901,22.501 39.4008,36.30996 64.92588,55.09556 115.19406,84.77894 27.78185,16.4052 66.41106,34.08613 124.83716,57.13906 15.04926,5.93793 14.85663,5.68884 17.10866,22.1234 5.36428,39.14668 0.58949,88.39493 -12.4789,128.7103 -13.43441,41.4445 -41.91779,73.18344 -72.75454,81.07016 -14.98981,3.83374 -30.81354,2.32822 -53.93311,-5.13139 -16.11378,-5.19917 -20.31591,-5.19196 -35.66999,0.0612 -15.29653,5.2335 -20.3764,5.29222 -35.79104,0.41377 -13.50065,-4.2727 -17.72074,-4.21428 -33.83155,0.46836 -20.20125,5.87155 -42.55578,7.70686 -56.5,4.63867 z m 39,-16.04472 c 3.3,-0.88241 10.74208,-3.12235 16.53796,-4.97766 17.93857,-5.74227 23.5513,-5.6417 38.83489,0.69587 11.41875,4.73496 19.49226,4.59147 32.07699,-0.57009 9.19947,-3.77313 9.6896,-3.86086 18.5,-3.31134 6.48042,0.40419 12.12661,1.56917 19.88489,4.10284 20.48059,6.68851 36.50978,8.33862 49.11297,5.05591 18.21531,-4.74449 35.39065,-19.71103 49.13405,-42.81528 12.8536,-21.6084 21.96538,-55.04776 25.52007,-93.65633 1.69245,-18.38213 0.0602,-62.17133 -2.40953,-64.64104 -0.21355,-0.21355 -4.84418,0.36565 -10.29028,1.28712 -8.68849,1.47008 -11.43392,1.52155 -22.40201,0.41997 -6.875,-0.69048 -21.725,-1.49089 -33,-1.77868 -23.13968,-0.59064 -31.41309,0.44637 -46.77488,5.86288 -11.36919,4.00874 -16.16173,6.47885 -31.15077,16.05533 -16.10665,10.29053 -20.88739,12.65453 -29.02111,14.35046 -12.15658,2.53472 -21.16392,-0.28027 -41.25811,-12.89403 -21.14465,-13.27317 -33.39033,-18.57097 -52.59613,-22.75443 -8.37194,-1.8236 -14.62468,-2.21434 -45.699,-2.85574 -39.19336,-0.80899 -40.58834,-1.00901 -53.82785,-7.71797 -2.67906,-1.35759 -5.12811,-2.21125 -5.44233,-1.89702 -1.58204,1.58204 -3.30938,19.50905 -3.86025,40.06315 -0.48929,18.25678 -0.27515,25.78406 1.03836,36.5 6.20573,50.6277 26.47024,96.18343 52.24079,117.44019 11.66728,9.62371 27.26583,17.13964 40.47205,19.50084 7.39129,1.32153 27.09901,0.48175 34.37923,-1.46495 z m 34.45073,-52.10374 c -10.9262,-7.51591 -11.9727,-7.73092 -33.90615,-6.96644 -27.8578,0.97097 -40.94268,-1.31906 -54.76789,-9.58511 -12.88314,-7.7028 -27.01821,-25.32413 -33.82842,-42.17183 -4.0034,-9.90397 -7.24217,-24.25506 -5.7995,-25.69773 1.39487,-1.39487 22.26805,-6.55846 32.42193,-8.02051 12.20227,-1.75699 32.87502,-1.51706 41.92768,0.48661 30.82464,6.8226 55.22106,30.7003 62.67426,61.34171 2.13788,8.78918 2.43671,30.19408 0.45492,32.58511 -1.96942,2.3761 -3.25885,2.09904 -9.17683,-1.97181 z m -25.14602,-30.84232 c 4.85102,-1.54887 8.56163,-3.3211 8.92248,-4.26148 1.01219,-2.63771 -5.32628,-13.47568 -11.49314,-19.65179 -9.84053,-9.85529 -23.01124,-14.56536 -40.82409,-14.59939 -9.58275,-0.0183 -22.76404,2.67417 -27.14518,5.54481 -2.75023,1.80202 -2.58806,2.87487 1.83046,12.10953 5.22854,10.92757 18.2322,20.51038 31.53883,23.24196 2.67626,0.54938 10.26593,0.83442 16.86593,0.63342 9.51817,-0.28988 13.71757,-0.91386 20.30471,-3.01706 z m 82.31726,31.11695 c -2.08289,-2.50974 -2.48179,-18.39609 -0.71601,-28.51539 6.44887,-36.95703 36.70759,-62.84449 76.59404,-65.52908 13.28282,-0.89401 40.56568,3.2644 51.56218,7.85903 l 3.62857,1.51612 -0.71705,5.26117 c -3.8691,28.38848 -20.86293,54.80469 -41.95374,65.21534 -13.07579,6.45435 -17.09249,7.07372 -44.20019,6.81558 -26.62627,-0.25355 -29.29536,0.16682 -36.304,5.71777 -4.16847,3.30149 -6.18007,3.72437 -7.8938,1.65946 z m 69.3819,-29.64796 c 9.01129,-2.3047 15.05666,-5.57241 21.55575,-11.65154 5.02421,-4.69957 10.11371,-13.97003 10.31341,-18.78579 0.11141,-2.68641 -0.42459,-3.3284 -4.37303,-5.23774 C 752.33754,432.58575 743.49116,431 733.87819,431 c -19.1746,0 -35.73908,9.21577 -45.12819,25.1074 -4.84984,8.20864 -4.79354,9.54573 0.5,11.87578 11.38851,5.01287 28.54236,6.26689 41.25387,3.01583 z M 477.48795,246.19961 c 5.9575,-7.31521 11.719,-13.77518 12.80331,-14.35549 1.73207,-0.92698 3.53299,0.53644 14.82951,12.05039 7.07192,7.20802 13.30242,13.10549 13.84557,13.10549 1.98811,0 3.89698,-4.68837 5.03886,-12.37594 1.49563,-10.06918 3.69479,-18.51006 5.56872,-21.37406 3.22427,-4.92777 9.69401,-2.06253 33.13883,14.67609 C 577.12672,248.21708 587,254.484 587,253.34209 c 0,-0.28442 -1.575,-3.33348 -3.5,-6.77571 -1.925,-3.44222 -3.5,-6.58316 -3.5,-6.97987 0,-1.52241 5.00205,0.92365 18.76057,9.17414 7.84331,4.70335 14.50282,8.3093 14.7989,8.01321 1.17452,-1.17452 -44.83258,-43.22007 -66.16461,-60.46736 -15.94437,-12.89127 -16.58251,-13.24584 -22.70309,-12.61414 -4.47805,0.46218 -6.35024,0.0524 -12.72129,-2.78406 -6.81133,-3.03253 -8.35283,-3.32963 -17.47048,-3.36715 -8.78886,-0.0362 -10.68734,0.28106 -15.67515,2.61926 -3.12133,1.46322 -7.67435,4.50321 -10.11783,6.75553 -4.75966,4.38731 -5.70279,5.69453 -16.29381,22.58406 -8.55288,13.63932 -18.07127,25.116 -31.25473,37.68503 C 415.57132,252.51179 411,257.36342 411,257.96641 c 0,3.29162 10.71616,1.78578 31.31915,-4.40098 6.14947,-1.84659 12.58768,-3.65276 14.30714,-4.01372 4.27824,-0.8981 6.37371,1.35496 6.37371,6.85305 0,2.34405 0.31071,4.57262 0.69048,4.95238 0.82994,0.82995 0.32984,1.37936 13.79747,-15.15753 z m -176.89028,492.9141 c 11.01374,-5.21041 10.16996,0.263 11.35751,-73.67365 1.26146,-78.53904 1.19428,-154.86885 -0.12536,-142.44006 -11.16886,105.19137 -16.86072,148.6125 -26.38398,201.2737 -2.99606,16.56746 -2.71227,17.72669 4.33934,17.72551 3.11965,-5.2e-4 6.77785,-0.97677 10.81249,-2.8855 z m 376.91771,-2.75529 c 3.01654,-2.00287 5.48462,-3.81934 5.48462,-4.0366 0,-0.72231 -10.34897,-13.32209 -10.92944,-13.30651 -2.0021,0.0537 -12.40295,12.63785 -11.56537,13.99309 0.52442,0.84853 10.36515,6.95057 11.26019,6.98222 0.14597,0.005 2.73347,-1.62933 5.75,-3.6322 z M 658.5417,715.48826 c 3.00206,-3.91947 5.4583,-7.5184 5.4583,-7.99763 0,-0.88989 -17.55775,-24.3325 -22.67342,-30.27291 l -2.82658,-3.28228 -9.27446,5.66755 c -8.17163,4.99362 -9.18236,5.91901 -8.5,7.78228 0.42596,1.1631 0.7119,6.17963 0.63544,11.14784 l -0.13902,9.0331 14.02836,9.24578 c 16.17144,10.65822 14.0203,10.78048 23.29138,-1.32373 z m 50.35309,1.17696 14.39479,-9.16522 0.21263,-9 c 0.11694,-4.95 0.38929,-9.87306 0.60521,-10.94013 0.31122,-1.53807 -1.47252,-3.03785 -8.60742,-7.23714 -4.95,-2.91336 -9.47371,-5.3028 -10.05269,-5.30987 -1.72638,-0.0211 -25.45611,29.94945 -25.43239,32.12099 0.008,0.75138 2.9212,4.96615 6.47332,9.36615 3.55212,4.4 6.47041,8.3375 6.48508,8.75 0.0492,1.38319 1.46417,0.62025 15.92147,-8.58478 z m -103.80724,-8.94524 c 4.14539,-2.79357 5.87836,-6.03156 5.89771,-11.01964 C 611.01614,688.74078 606.01389,684 597.58446,684 c -8.29309,0 -15.11858,8.82155 -12.6389,16.33505 1.10156,3.33775 5.23335,7.93472 8.05444,8.96124 3.55601,1.29395 8.85351,0.60311 12.08755,-1.57631 z m 147.24017,0.91645 c 6.36385,-2.65899 9.20204,-10.61044 6.11177,-17.1227 -4.47193,-9.42389 -18.44712,-10.17871 -23.08407,-1.2468 -1.97616,3.80658 -2.19573,10.29442 -0.45826,13.5409 2.89219,5.40412 10.80618,7.59644 17.43056,4.8286 z m -68.88964,-26.081 C 689.24713,675.18374 694,668.71566 694,668.18193 694,666.78919 675.14563,656 672.71178,656 c -2.39119,0 -22.89205,11.00644 -22.48726,12.0729 0.8101,2.13429 21.38222,28.63248 21.96356,28.29045 0.37844,-0.22266 5.44094,-6.43623 11.25,-13.80792 z m -52.91799,-18.36098 c -0.72246,-1.88659 -17.99056,-24.40525 -20.35717,-26.54701 -1.60174,-1.44955 -2.40849,-1.58638 -4.07973,-0.69196 C 604.09401,638.02006 604,638.8607 604,655.58408 v 17.5137 l 4.11658,1.84305 4.11659,1.84305 9.39344,-5.64194 c 5.94815,-3.57261 9.21007,-6.12078 8.89348,-6.94749 z m 105.88026,11.28274 3.64459,-1.52281 -0.27247,-18.2143 c -0.25084,-16.7684 -0.41847,-18.24236 -2.11168,-18.5677 -2.52793,-0.48572 -5.39206,2.42803 -15.80145,16.07521 l -8.96047,11.74758 9.30057,5.99064 c 5.11531,3.29485 9.5831,5.99593 9.92844,6.00241 0.34533,0.006 2.26794,-0.67348 4.27247,-1.51103 z M 651.16211,654.40496 C 655.47295,651.87769 659,649.44034 659,648.98863 c 0,-0.45171 -6.8625,-4.83381 -15.25,-9.73799 -8.3875,-4.90418 -16.93511,-9.93487 -18.99468,-11.1793 -3.29877,-1.99319 -3.81796,-2.07169 -4.35996,-0.65926 -0.33839,0.88185 0.18001,2.83739 1.15201,4.34564 2.80624,4.35445 20.65431,27.24228 21.2437,27.24228 0.29323,0 4.0602,-2.06777 8.37104,-4.59504 z m 62.4989,-9.65496 c 12.93639,-16.77908 12.4272,-15.98923 11.38981,-17.66777 -0.61973,-1.00275 -5.37624,1.25985 -19.68401,9.36342 -10.37675,5.87713 -19.24571,11.05754 -19.70882,11.51202 -0.67573,0.66316 14.26099,10.62063 16.42925,10.95246 0.32299,0.0494 5.53118,-6.32263 11.57377,-14.16013 z M 607.11765,623.11765 c 3.33309,-3.33309 3.88026,-4.50028 3.86761,-8.25 -0.0188,-5.57113 -1.62973,-8.70629 -5.99983,-11.67675 -5.17801,-3.51963 -11.94025,-2.70274 -16.65492,2.01193 C 579.58984,613.94349 585.89224,627 598.85205,627 c 3.75831,0 4.93676,-0.55352 8.2656,-3.88235 z m 146.46239,1.99667 c 6.20715,-3.78511 7.94321,-12.33371 3.79153,-18.66998 -3.27934,-5.0049 -11.6414,-6.90753 -17.36053,-3.95005 -4.41867,2.28498 -6.01104,5.29059 -6.01104,11.34586 0,4.93375 0.33202,5.72716 3.88235,9.2775 3.32678,3.32677 4.50738,3.88182 8.25,3.87861 2.50733,-0.002 5.67953,-0.80372 7.44769,-1.88194 z M 339.98629,442.5 c 0.6441,-5.5 3.61067,-23.17513 6.5924,-39.27807 C 349.56041,387.11899 352,373.44488 352,372.83502 c 0,-0.75254 -2.1066,-0.93974 -6.55601,-0.58259 -3.60581,0.28944 -6.7371,0.70735 -6.95844,0.92869 -0.58597,0.58597 -1.02139,36.04268 -0.73357,59.73555 0.13641,11.22916 0.43144,20.22916 0.65563,20 C 338.63179,452.6875 339.3422,448 339.98629,442.5 Z M 308,440.66269 c 0,-5.68552 0.29622,-23.18269 0.65827,-38.88261 l 0.65827,-28.54531 -7.2175,-0.72482 c -3.96962,-0.39866 -7.4497,-0.49263 -7.7335,-0.20882 -0.28381,0.2838 1.12803,9.66965 3.13742,20.85744 C 303.60959,427.1588 306,442.22586 306,446.71645 306,449.0724 306.45,451 307,451 c 0.60218,0 1,-4.11244 1,-10.33731 z m 57.49543,-112.77904 c 10.45251,-0.61399 19.19207,-1.28899 19.42124,-1.5 1.17599,-1.08282 -2.8783,-1.40743 -30.46777,-2.43942 -22.44871,-0.8397 -37.83636,-0.82807 -61.44423,0.0464 -17.32242,0.64167 -31.68492,1.35627 -31.91666,1.58801 -0.99658,0.99658 1.31177,1.28478 17.41199,2.17393 24.60557,1.35885 65.05618,1.4198 86.99543,0.13106 z"
       id="path1" />
  </g>
</svg>
